<svg width="125" height="101" viewBox="0 0 125 101" fill="none" xmlns="http://www.w3.org/2000/svg">
<path d="M62.4997 36.0233C51.1064 36.0233 41.8748 45.2619 41.8748 56.6482C41.8748 68.0415 51.1066 77.2731 62.4997 77.2731C73.886 77.2731 83.1246 68.0413 83.1246 56.6482C83.1246 45.2629 73.886 36.0233 62.4997 36.0233V36.0233Z" fill="#757575"/>
<path d="M112.499 19.1484H97.4965C95.434 19.1484 93.2116 17.5499 92.5663 15.5899L88.6861 3.95553C88.0312 1.99661 85.8146 0.39801 83.7518 0.39801H41.2471C39.1845 0.39801 36.9621 1.99654 36.3148 3.95652L32.4346 15.5909C31.7816 17.5508 29.5671 19.1494 27.5023 19.1494H12.4994C5.6277 19.1494 0 24.7771 0 31.6488V87.8986C0 94.7703 5.6277 100.398 12.4994 100.398H112.499C119.371 100.398 124.998 94.7703 124.998 87.8986L124.999 31.6488C124.999 24.7771 119.372 19.1494 112.5 19.1494L112.499 19.1484ZM62.4997 87.8981C45.2384 87.8981 31.2498 73.9096 31.2498 56.6482C31.2498 39.3948 45.2384 25.3984 62.4997 25.3984C79.7541 25.3984 93.7495 39.3938 93.7495 56.6482C93.7495 73.9096 79.7541 87.8981 62.4997 87.8981ZM108.122 40.8274C105.47 40.8274 103.308 38.6718 103.308 36.0134C103.308 33.3609 105.47 31.2061 108.122 31.2061C110.78 31.2061 112.936 33.3617 112.936 36.0134C112.936 38.6719 110.78 40.8274 108.122 40.8274Z" fill="#757575"/>
</svg>
