<svg width="22" height="22" viewBox="0 0 22 22" fill="none" xmlns="http://www.w3.org/2000/svg">
<path d="M21.3378 20.5862L21.5149 20.4095L21.338 20.2325L15.4156 14.3084C16.5862 12.8946 17.3156 11.0976 17.3156 9.11138C17.3156 4.58112 13.6429 0.910034 9.1128 0.910034C4.58259 0.910034 0.911499 4.58089 0.910034 9.1113L0.910034 9.11147C0.911751 13.6416 4.58257 17.3127 9.1128 17.3127C11.0972 17.3127 12.8956 16.585 14.3098 15.4144L20.2322 21.3368L20.4088 21.5134L20.5856 21.337L21.3378 20.5862ZM9.11291 15.7488C5.44695 15.7422 2.48372 12.7777 2.47542 9.11145C2.48373 5.44532 5.44686 2.48071 9.11285 2.47237C12.7787 2.47905 15.7419 5.44514 15.7502 9.11145C15.7419 12.7794 12.7787 15.7438 9.11291 15.7488Z" fill="#9AA0A6" stroke="#9AA0A6" stroke-width="0.5"/>
</svg>
